<?xml version="1.0" encoding="UTF-8"?>
<!--Generator: Apple Native CoreSVG 175.5-->
<!DOCTYPE svg
PUBLIC "-//W3C//DTD SVG 1.1//EN"
       "http://www.w3.org/Graphics/SVG/1.1/DTD/svg11.dtd">
<svg version="1.1" xmlns="http://www.w3.org/2000/svg" xmlns:xlink="http://www.w3.org/1999/xlink" width="32.5955" height="32.5962">
 <g>
  <rect height="32.5962" opacity="0" width="32.5955" x="0" y="0"/>
  <path d="M16.2952 32.5905C25.2326 32.5905 32.5955 25.222 32.5955 16.2952C32.5955 7.35787 25.222 0 16.2846 0C7.36284 0 0 7.35787 0 16.2952C0 25.222 7.3735 32.5905 16.2952 32.5905ZM16.2952 29.0101C9.2432 29.0101 3.59107 23.3473 3.59107 16.2952C3.59107 9.2432 9.23255 3.58042 16.2846 3.58042C23.3366 3.58042 29.015 9.2432 29.015 16.2952C29.015 23.3473 23.3473 29.0101 16.2952 29.0101Z" fill="#1800ff"/>
  <path d="M16.2739 26.4214C21.89 26.4214 26.4157 21.885 26.4051 16.2796C26.3944 10.6849 21.8687 6.14848 16.2633 6.14848C10.6579 6.14848 6.15841 10.6742 6.15841 16.2796C6.15841 21.8957 10.6685 26.4214 16.2739 26.4214Z" fill="#ffffff"/>
 </g>
</svg>
