<?xml version="1.0" encoding="UTF-8"?>
<!--Generator: Apple Native CoreSVG 175.5-->
<!DOCTYPE svg
PUBLIC "-//W3C//DTD SVG 1.1//EN"
       "http://www.w3.org/Graphics/SVG/1.1/DTD/svg11.dtd">
<svg version="1.1" xmlns="http://www.w3.org/2000/svg" xmlns:xlink="http://www.w3.org/1999/xlink" width="32.5955" height="32.6175">
 <g>
  <rect height="32.6175" opacity="0" width="32.5955" x="0" y="0"/>
  <path d="M16.2952 32.5905C25.2326 32.5905 32.5955 25.2326 32.5955 16.2952C32.5955 7.36853 25.222 0 16.2846 0C7.36284 0 0 7.36853 0 16.2952C0 25.2326 7.3735 32.5905 16.2952 32.5905ZM16.2952 29.0101C9.2432 29.0101 3.59107 23.3473 3.59107 16.2952C3.59107 9.2432 9.23255 3.58042 16.2846 3.58042C23.3366 3.58042 29.015 9.2432 29.015 16.2952C29.015 23.3473 23.3473 29.0101 16.2952 29.0101Z" fill="#1b00ff"/>
  <path d="M16.3158 24.2477C17.3171 24.2477 17.8547 23.5795 17.7646 22.5917L17.4898 18.401L21.118 20.9225C21.412 21.1476 21.7472 21.2711 22.1342 21.2711C22.8991 21.2711 23.5773 20.637 23.5773 19.7457C23.5773 19.1257 23.2535 18.6528 22.6136 18.3715L18.6283 16.3492L22.6136 14.3376C23.2535 14.0564 23.5773 13.5827 23.5773 12.9734C23.5773 12.0665 22.8991 11.4522 22.1342 11.4522C21.7472 11.4522 21.412 11.5758 21.118 11.8016L17.465 14.3209L17.7546 9.99458C17.8547 8.93646 17.2277 8.33283 16.3158 8.33283C15.3834 8.33283 14.7095 8.96274 14.8145 10.0095L15.0992 14.3209L11.4561 11.8122C11.1721 11.5815 10.827 11.4735 10.4499 11.4735C9.68005 11.4735 8.9919 12.0921 8.9919 12.9841C8.9919 13.604 9.30577 14.062 9.96052 14.3589L13.9196 16.3492L9.96548 18.3559C9.32564 18.6421 8.9919 19.1058 8.9919 19.7152C8.9919 20.6114 9.68005 21.2555 10.4499 21.2555C10.822 21.2555 11.1572 21.1369 11.4512 20.9118L15.0893 18.401L14.8096 22.5917C14.7144 23.5582 15.289 24.2477 16.3158 24.2477Z" fill="#ffffff" fill-opacity="0.85"/>
 </g>
</svg>
