<?xml version="1.0" encoding="UTF-8"?>
<!--Generator: Apple Native CoreSVG 175.5-->
<!DOCTYPE svg
PUBLIC "-//W3C//DTD SVG 1.1//EN"
       "http://www.w3.org/Graphics/SVG/1.1/DTD/svg11.dtd">
<svg version="1.1" xmlns="http://www.w3.org/2000/svg" xmlns:xlink="http://www.w3.org/1999/xlink" width="37.8164" height="37.6729">
 <g>
  <rect height="37.6729" opacity="0" width="37.8164" x="0" y="0"/>
  <path d="M2.39941 2.46094C0.389648 4.4707 0 7.25977 0 10.582L0 10.7871L3.30176 10.7871L3.30176 10.459C3.30176 8.30566 3.56836 6.09082 4.79883 4.86035C6.0498 3.60938 8.28516 3.34277 10.4385 3.34277L10.8076 3.34277L10.8076 0.0410156L10.5615 0.0410156C7.23926 0.0410156 4.42969 0.430664 2.39941 2.46094ZM13.6172 3.34277L24.1992 3.34277L24.1992 0.0410156L13.6172 0.0410156ZM35.417 2.46094C33.3867 0.430664 30.5771 0.0410156 27.1934 0.0410156L26.9883 0.0410156L26.9883 3.34277L27.4395 3.34277C29.5518 3.34277 31.7666 3.62988 32.9971 4.86035C34.248 6.11133 34.5146 8.28516 34.5146 10.3975L34.5146 10.7871L37.8164 10.7871L37.8164 10.6436C37.8164 7.23926 37.4268 4.4502 35.417 2.46094ZM34.5146 24.1172L37.8164 24.1172L37.8164 13.5967L34.5146 13.5967ZM35.417 35.2529C37.4268 33.2432 37.8164 30.4746 37.8164 27.0703L37.8164 26.9268L34.5146 26.9268L34.5146 27.2959C34.5146 29.4287 34.248 31.6025 32.9971 32.8535C31.7666 34.084 29.5518 34.3711 27.4395 34.3711L26.9883 34.3711L26.9883 37.6729L27.1934 37.6729C30.5771 37.6729 33.3867 37.2832 35.417 35.2529ZM13.6172 37.6729L24.1992 37.6729L24.1992 34.3711L13.6172 34.3711ZM2.39941 35.2529C4.42969 37.2832 7.23926 37.6729 10.6025 37.6729L10.8076 37.6729L10.8076 34.3711L10.377 34.3711C8.26465 34.3711 6.0498 34.084 4.79883 32.8535C3.56836 31.6025 3.30176 29.4287 3.30176 27.2959L3.30176 26.9268L0 26.9268L0 27.0703C0 30.4746 0.389648 33.2432 2.39941 35.2529ZM0 24.1172L3.30176 24.1172L3.30176 13.5967L0 13.5967Z" fill="#ffffff" fill-opacity="0.425"/>
  <path d="M18.5186 23.0713C19.5439 23.0713 20.1592 22.415 20.1592 21.6152C20.1592 21.5332 20.1592 21.4307 20.1592 21.3691C20.1592 20.2207 20.8359 19.4824 22.251 18.5391C24.2402 17.2266 25.6553 16.0371 25.6553 13.5762C25.6553 10.1719 22.6406 8.32617 19.1543 8.32617C15.627 8.32617 13.3096 10.0078 12.7354 11.8945C12.6328 12.2227 12.5713 12.5508 12.5713 12.8994C12.5713 13.8223 13.2891 14.3145 13.9863 14.3145C14.6836 14.3145 15.1143 13.9863 15.4834 13.4941L15.8525 13.002C16.5703 11.8125 17.6572 11.1152 19.0107 11.1152C20.877 11.1152 22.1074 12.1816 22.1074 13.7402C22.1074 15.1348 21.2256 15.8115 19.4414 17.0625C17.9648 18.0879 16.8779 19.1748 16.8779 21.1846C16.8779 21.2666 16.8779 21.3691 16.8779 21.4512C16.8779 22.5176 17.4521 23.0713 18.5186 23.0713ZM18.457 29.1826C19.6465 29.1826 20.6719 28.2393 20.6719 27.0498C20.6719 25.8604 19.667 24.917 18.457 24.917C17.2471 24.917 16.2422 25.8809 16.2422 27.0498C16.2422 28.2188 17.2676 29.1826 18.457 29.1826Z" fill="#ffffff" fill-opacity="0.85"/>
 </g>
</svg>
